<?xml version="1.0" encoding="UTF-8"?>
<svg width="1920" height="1080" viewBox="0 0 1920 1080" fill="none" xmlns="http://www.w3.org/2000/svg">
  <defs>
    <linearGradient id="bg" x1="0" y1="0" x2="1" y2="1">
      <stop offset="0" stop-color="#052016"/>
      <stop offset="0.55" stop-color="#0B3B2A"/>
      <stop offset="1" stop-color="#061A13"/>
    </linearGradient>
    <linearGradient id="gold" x1="0" y1="0" x2="1" y2="0">
      <stop offset="0" stop-color="#F5D77A" stop-opacity="0.0"/>
      <stop offset="0.5" stop-color="#F5D77A" stop-opacity="0.35"/>
      <stop offset="1" stop-color="#F5D77A" stop-opacity="0.0"/>
    </linearGradient>
    <radialGradient id="spot" cx="0" cy="0" r="1" gradientUnits="userSpaceOnUse" gradientTransform="translate(1420 300) rotate(135) scale(680 520)">
      <stop stop-color="#F5D77A" stop-opacity="0.20"/>
      <stop offset="1" stop-color="#F5D77A" stop-opacity="0"/>
    </radialGradient>
    <filter id="blur" x="-20%" y="-20%" width="140%" height="140%">
      <feGaussianBlur stdDeviation="18"/>
    </filter>
  </defs>

  <rect width="1920" height="1080" fill="url(#bg)"/>

  <!-- soft highlight -->
  <ellipse cx="1420" cy="300" rx="680" ry="520" fill="url(#spot)"/>

  <!-- subtle waves -->
  <g opacity="0.55" filter="url(#blur)">
    <path d="M-60 780C220 710 380 880 660 810C940 740 1120 620 1400 700C1680 780 1800 710 1980 640V1200H-60V780Z" fill="#0E4A34" fill-opacity="0.45"/>
    <path d="M-60 860C260 770 420 950 720 880C1020 810 1220 690 1500 760C1780 830 1860 770 1980 700V1200H-60V860Z" fill="#082B1F" fill-opacity="0.55"/>
  </g>

  <!-- gold beam -->
  <rect x="-200" y="180" width="2320" height="90" fill="url(#gold)" opacity="0.8" transform="rotate(-12 960 225)"/>

  <!-- fine grain -->
  <g opacity="0.06">
    <circle cx="120" cy="120" r="2" fill="#FFFFFF"/>
    <circle cx="420" cy="260" r="1.5" fill="#FFFFFF"/>
    <circle cx="760" cy="140" r="1.8" fill="#FFFFFF"/>
    <circle cx="980" cy="380" r="1.4" fill="#FFFFFF"/>
    <circle cx="1260" cy="210" r="2" fill="#FFFFFF"/>
    <circle cx="1540" cy="420" r="1.6" fill="#FFFFFF"/>
    <circle cx="1740" cy="160" r="1.7" fill="#FFFFFF"/>
    <circle cx="320" cy="560" r="1.5" fill="#FFFFFF"/>
    <circle cx="620" cy="620" r="1.7" fill="#FFFFFF"/>
    <circle cx="920" cy="680" r="1.4" fill="#FFFFFF"/>
    <circle cx="1180" cy="560" r="1.8" fill="#FFFFFF"/>
    <circle cx="1480" cy="700" r="1.5" fill="#FFFFFF"/>
    <circle cx="1720" cy="620" r="1.9" fill="#FFFFFF"/>
  </g>
</svg>
